<svg width="40" height="40" viewBox="0 0 40 40" fill="none" xmlns="http://www.w3.org/2000/svg">
<g clip-path="url(#clip0_160_15)">
<path d="M20.0002 3.33301C29.2052 3.33301 36.6668 10.7947 36.6668 19.9997C36.6668 29.2047 29.2052 36.6663 20.0002 36.6663C10.7952 36.6663 3.3335 29.2047 3.3335 19.9997C3.3335 10.7947 10.7952 3.33301 20.0002 3.33301ZM20.0002 6.66634C16.4639 6.66634 13.0726 8.0711 10.5721 10.5716C8.07159 13.0721 6.66683 16.4635 6.66683 19.9997C6.66683 23.5359 8.07159 26.9273 10.5721 29.4278C13.0726 31.9282 16.4639 33.333 20.0002 33.333C23.5364 33.333 26.9278 31.9282 29.4283 29.4278C31.9287 26.9273 33.3335 23.5359 33.3335 19.9997C33.3335 16.4635 31.9287 13.0721 29.4283 10.5716C26.9278 8.0711 23.5364 6.66634 20.0002 6.66634ZM20.8335 21.6663C21.2583 21.6668 21.6669 21.8295 21.9758 22.1211C22.2847 22.4127 22.4706 22.8113 22.4954 23.2353C22.5203 23.6594 22.3824 24.077 22.1097 24.4027C21.8371 24.7285 21.4503 24.9378 21.0285 24.988L20.8335 24.9997H15.1768L13.7885 27.4813C13.5826 27.8558 13.2407 28.1368 12.8335 28.2664C12.4263 28.396 11.9849 28.3642 11.6005 28.1776C11.2161 27.9911 10.918 27.664 10.7678 27.264C10.6176 26.8639 10.6268 26.4215 10.7935 26.028L10.8802 25.8513L11.3568 25.0013H10.5002C10.0728 25.0047 9.66042 24.8438 9.34832 24.5518C9.03621 24.2598 8.84822 23.859 8.82318 23.4324C8.79815 23.0057 8.93799 22.5857 9.2138 22.2592C9.48961 21.9327 9.88031 21.7246 10.3052 21.678L10.5002 21.6663H20.8335ZM23.9885 16.6863L26.7768 21.6663H29.5002C29.9422 21.6663 30.3661 21.8419 30.6787 22.1545C30.9912 22.4671 31.1668 22.891 31.1668 23.333C31.1668 23.775 30.9912 24.199 30.6787 24.5115C30.3661 24.8241 29.9422 24.9997 29.5002 24.9997H28.6435L29.1218 25.853C29.3322 26.2383 29.3821 26.691 29.2607 27.1129C29.1393 27.5347 28.8563 27.8916 28.4733 28.1061C28.0902 28.3205 27.6381 28.3752 27.215 28.2582C26.7919 28.1413 26.432 27.8621 26.2135 27.4813L21.0802 18.3147C20.8698 17.9294 20.8199 17.4767 20.9413 17.0548C21.0627 16.633 21.3457 16.2761 21.7287 16.0616C22.1117 15.8472 22.5639 15.7925 22.987 15.9095C23.4101 16.0264 23.77 16.3056 23.9885 16.6863ZM19.7885 9.18634L20.0002 9.56467L20.2118 9.18634C20.4278 8.80045 20.7881 8.51614 21.2137 8.39596C21.6392 8.27578 22.0951 8.32958 22.481 8.54551C22.8669 8.76144 23.1512 9.12182 23.2714 9.54737C23.3916 9.97292 23.3378 10.4288 23.1218 10.8147L17.9885 19.9813C17.77 20.3621 17.4101 20.6413 16.987 20.7582C16.5639 20.8752 16.1117 20.8205 15.7287 20.6061C15.3457 20.3916 15.0627 20.0347 14.9413 19.6129C14.8199 19.191 14.8698 18.7383 15.0802 18.353L18.0902 12.9763L16.8802 10.8147C16.7705 10.6236 16.6998 10.4126 16.6722 10.194C16.6446 9.97536 16.6606 9.75344 16.7193 9.54105C16.778 9.32867 16.8783 9.13004 17.0143 8.95665C17.1502 8.78326 17.3193 8.63855 17.5115 8.5309C17.7038 8.42326 17.9155 8.3548 18.1344 8.32951C18.3533 8.30421 18.575 8.32257 18.7868 8.38352C18.9985 8.44447 19.1961 8.54681 19.368 8.68462C19.54 8.82242 19.6829 8.99295 19.7885 9.18634Z" fill="black"/>
</g>
<defs>
<clipPath id="clip0_160_15">
<rect width="40" height="40" fill="white"/>
</clipPath>
</defs>
</svg>
