<svg width="262" height="209" viewBox="0 0 262 209" fill="none" xmlns="http://www.w3.org/2000/svg">
<path d="M260.706 189.078C261.497 187.947 261.221 186.388 260.09 185.597L241.651 172.703C240.519 171.911 238.961 172.187 238.17 173.319C237.378 174.45 237.654 176.009 238.786 176.8L255.176 188.262L243.714 204.652C242.923 205.783 243.199 207.342 244.33 208.133C245.462 208.924 247.021 208.649 247.812 207.517L260.706 189.078ZM2.71973 1C0.220292 1.05318 0.220318 1.05438 0.220354 1.05603C0.220379 1.05718 0.220426 1.05929 0.220477 1.0616C0.220581 1.06622 0.220729 1.07265 0.220923 1.08088C0.221313 1.09735 0.221892 1.12102 0.222695 1.15179C0.224299 1.21334 0.226795 1.30332 0.230441 1.421C0.237734 1.65634 0.249632 2.00245 0.268219 2.45336C0.305392 3.35515 0.369328 4.67628 0.476711 6.36896C0.691455 9.75399 1.08008 14.6269 1.77626 20.6048C3.16803 32.5557 5.79203 48.9496 10.7249 66.7148C20.5615 102.141 39.7238 143.534 77.1458 165.604L79.6858 161.297C43.9503 140.222 25.2646 100.39 15.5426 65.3771C10.6961 47.9228 8.11309 31.7937 6.74269 20.0265C6.05779 14.1454 5.67654 9.36044 5.46668 6.0524C5.36176 4.39855 5.29971 3.11435 5.26398 2.24743C5.24611 1.81398 5.23482 1.4849 5.22804 1.26613C5.22465 1.15675 5.22239 1.07495 5.221 1.02148C5.2203 0.994748 5.21982 0.975097 5.21952 0.962621C5.21938 0.956383 5.21928 0.95194 5.21922 0.949301C5.21919 0.947982 5.21917 0.947361 5.21916 0.9467C5.21915 0.946531 5.21916 0.946815 2.71973 1ZM77.1458 165.604C114.271 187.498 159.84 193.568 195.925 194.227C214 194.557 229.771 193.53 241.027 192.42C246.657 191.865 251.161 191.289 254.263 190.851C255.814 190.632 257.015 190.447 257.831 190.316C258.24 190.251 258.552 190.199 258.763 190.164C258.869 190.146 258.95 190.132 259.005 190.123C259.033 190.118 259.054 190.114 259.068 190.112C259.076 190.11 259.081 190.109 259.085 190.109C259.087 190.108 259.089 190.108 259.09 190.108C259.092 190.108 259.093 190.107 258.657 187.646C258.221 185.184 258.222 185.184 258.221 185.184C258.221 185.184 258.22 185.184 258.219 185.184C258.217 185.185 258.213 185.185 258.207 185.186C258.196 185.188 258.178 185.191 258.153 185.196C258.105 185.204 258.031 185.217 257.932 185.233C257.734 185.267 257.436 185.316 257.042 185.379C256.254 185.505 255.083 185.685 253.563 185.9C250.523 186.33 246.09 186.897 240.537 187.444C229.429 188.54 213.856 189.553 196.016 189.228C160.269 188.575 115.718 182.547 79.6858 161.297L77.1458 165.604Z" fill="black"/>
</svg>
