<svg width="30" height="25" viewBox="0 0 30 25" fill="none" xmlns="http://www.w3.org/2000/svg">
<path fill-rule="evenodd" clip-rule="evenodd" d="M2.96898 3.50127C3.1922 3.09165 3.6275 2.81036 4.12192 2.81036H25.8554C26.3498 2.81036 26.7851 3.09168 27.0084 3.50133L14.9887 11.9151L2.96898 3.50127ZM9.93594e-05 4.10397C-1.88477e-05 4.11392 -3.15242e-05 4.12387 6.10191e-05 4.13382V20.422C6.10191e-05 22.6922 1.85169 24.5438 4.12192 24.5438H25.8554C28.1256 24.5438 29.9772 22.6922 29.9772 20.422C29.9772 18.6091 29.9829 16.7959 29.9886 14.9827C29.9999 11.3623 30.0113 7.74163 29.9774 4.12223C29.9774 4.1124 29.9773 4.10258 29.9771 4.09275C29.9771 4.08979 29.9771 4.08683 29.9771 4.08387C29.9562 1.87086 28.1127 0 25.8554 0H4.12192C1.85765 0 0.00979634 1.84191 9.93594e-05 4.10397ZM27.1669 6.82084V20.422C27.1669 21.1401 26.5735 21.7335 25.8554 21.7335H4.12192C3.40381 21.7335 2.81042 21.1401 2.81042 20.422V6.82075L14.1829 14.7815C14.6667 15.1202 15.3107 15.1202 15.7945 14.7815L27.1669 6.82084Z" fill="#25231F"/>
</svg>
