<svg width="30" height="30" viewBox="0 0 30 30" fill="none" xmlns="http://www.w3.org/2000/svg">
<path fill-rule="evenodd" clip-rule="evenodd" d="M9.13235 3.13313C8.88817 2.92355 8.57547 2.80938 8.2525 2.81255L8.23868 2.81269L4.13851 2.81262C3.95397 2.81287 3.77158 2.85143 3.60294 2.92577C3.43414 3.00019 3.28292 3.10877 3.15882 3.24446C3.03472 3.38014 2.94044 3.53995 2.88182 3.71365C2.82418 3.88443 2.80222 4.06508 2.81721 4.24449C3.24403 8.23673 4.60613 12.073 6.79364 15.443L6.80035 15.4534C8.78814 18.5754 11.4404 21.2225 14.5691 23.2067L14.58 23.2136C17.9415 25.3892 21.7669 26.7486 25.7498 27.1829C25.9309 27.1978 26.1131 27.1755 26.2851 27.1174C26.4606 27.0582 26.6214 26.9631 26.7576 26.8385C26.8937 26.7138 27.0021 26.5624 27.0759 26.3939C27.1433 26.2401 27.1836 26.0479 27.1875 25.7724L27.1867 21.7615L27.1871 21.7263C27.1951 21.4028 27.0838 21.0873 26.8737 20.8398C26.6645 20.5934 26.3719 20.4314 26.0507 20.385C24.6359 20.1982 23.2468 19.8525 21.9097 19.3546L21.9066 19.3534C21.6686 19.2641 21.4098 19.2448 21.1611 19.2977C20.9134 19.3504 20.6863 19.4725 20.5063 19.6493C20.5056 19.65 20.5048 19.6508 20.504 19.6516L18.7735 21.3786C18.3261 21.8251 17.6358 21.9183 17.0861 21.6063C13.4439 19.5394 10.4279 16.5295 8.35647 12.8938C8.04262 12.343 8.13619 11.6502 8.58494 11.2024L10.3177 9.47305C10.4948 9.29348 10.6165 9.0675 10.669 8.8218C10.7217 8.57507 10.7025 8.31843 10.6135 8.08216L10.6123 8.07898C10.1133 6.74418 9.76679 5.35737 9.57954 3.94492C9.53366 3.62996 9.37514 3.34151 9.13235 3.13313ZM8.23249 0.000132322C9.23363 -0.0078633 10.2042 0.346735 10.9641 0.998951C11.726 1.65288 12.2242 2.5615 12.365 3.55572L12.3668 3.56867C12.526 4.7731 12.8211 5.95574 13.2467 7.09401L13.2455 7.09083C13.5243 7.83117 13.5847 8.63589 13.4194 9.40954C13.2541 10.1832 12.8701 10.8929 12.3133 11.4549L12.3078 11.4605L11.3522 12.4141C12.9487 14.9042 15.0682 17.0191 17.5641 18.6121L18.5284 17.6498C19.0914 17.0941 19.8019 16.7115 20.5756 16.5469C21.3486 16.3823 22.1528 16.4422 22.8929 16.7195C24.0334 17.1441 25.2184 17.4387 26.4252 17.5975L26.4378 17.5992C27.4426 17.7407 28.3609 18.2459 29.0177 19.0196C29.6704 19.7883 30.0195 20.7688 29.9992 21.7767L30 25.7974C29.9938 26.3331 29.9136 26.9254 29.652 27.5225C29.4208 28.0502 29.0818 28.5237 28.6569 28.9128C28.2319 29.3019 27.7304 29.5979 27.1846 29.7822C26.6387 29.9664 26.0604 30.0348 25.4866 29.9831L25.4613 29.9808C21.0388 29.5012 16.7905 27.9933 13.0573 25.5783C9.58441 23.3747 6.63942 20.4356 4.43122 16.9691C2.00259 13.2259 0.491043 8.96426 0.019141 4.52926L0.0168041 4.5073C-0.0349978 3.9352 0.033309 3.35861 0.216989 2.81434C0.400667 2.27006 0.695823 1.77012 1.08351 1.34626C1.47118 0.922412 1.94287 0.583946 2.46846 0.352252C2.99403 0.120561 3.56207 0.000672672 4.13645 0.000132881L8.23249 0.000132322Z" fill="#25231F"/>
</svg>
