<svg width="30" height="30" viewBox="0 0 30 30" fill="none" xmlns="http://www.w3.org/2000/svg">
<path d="M25.9913 0.227033L1.78903 10.2344C0.769396 10.6559 0.0868501 11.6016 0.00763846 12.702C-0.0714904 13.8026 0.468698 14.8362 1.41745 15.3993L8.35377 19.2907C9.4154 18.2291 17.6069 12.3931 17.6069 12.3931C17.6069 12.3931 11.771 20.5846 10.7093 21.6463L14.6007 28.5825C15.1639 29.5313 16.1974 30.0715 17.298 29.9923C18.4007 29.913 19.3448 29.2287 19.7657 28.2109L29.773 4.00865C30.2287 2.90674 29.9879 1.69845 29.1447 0.855293C28.3016 0.0121324 27.0932 -0.228688 25.9913 0.227033Z" fill="#25231F"/>
</svg>
